<?xml version="1.0" encoding="UTF-8" standalone="no"?>
<svg
   viewBox="0 0 24 24"
   fill="none"
   stroke="#444"
   stroke-width="2"
   stroke-linecap="round"
   stroke-linejoin="round"
   version="1.1"
   id="svg3"
   sodipodi:docname="neighbours.svg"
   inkscape:version="1.4.2 (ebf0e940, 2025-05-08)"
   inkscape:export-filename="../neighbours.png"
   inkscape:export-xdpi="800"
   inkscape:export-ydpi="800"
   xmlns:inkscape="http://www.inkscape.org/namespaces/inkscape"
   xmlns:sodipodi="http://sodipodi.sourceforge.net/DTD/sodipodi-0.dtd"
   xmlns="http://www.w3.org/2000/svg"
   xmlns:svg="http://www.w3.org/2000/svg">
  <defs
     id="defs3" />
  <sodipodi:namedview
     id="namedview3"
     pagecolor="#ffffff"
     bordercolor="#111111"
     borderopacity="1"
     inkscape:showpageshadow="0"
     inkscape:pageopacity="0"
     inkscape:pagecheckerboard="1"
     inkscape:deskcolor="#d1d1d1"
     inkscape:zoom="27.168244"
     inkscape:cx="7.103882"
     inkscape:cy="15.219975"
     inkscape:window-width="1712"
     inkscape:window-height="948"
     inkscape:window-x="0"
     inkscape:window-y="39"
     inkscape:window-maximized="0"
     inkscape:current-layer="svg3" />
  <path
     d="m 4.8042253,17.592315 a 2,2 0 1 0 0,4 2,2 0 0 0 0,-4 z"
     id="path2" />
  <path
     d="m 4.8778404,3.7424464 a 2,2 0 1 0 0,4 2,2 0 0 0 0,-4 z"
     id="path2-6" />
  <path
     d="m 18.759307,3.7424464 a 2,2 0 1 0 0,4 2,2 0 0 0 0,-4 z"
     id="path2-6-8" />
  <path
     d="m 18.804225,10.601408 a 9,9 0 0 1 -8.9999997,9"
     id="path3" />
  <path
     style="fill:#464646;fill-opacity:1;stroke:#444444;stroke-width:2;stroke-linecap:round;stroke-linejoin:round;stroke-dasharray:none"
     d="M 4.8042253,14.782763 V 10.577655"
     id="path4"
     sodipodi:nodetypes="cc" />
</svg>
